HIERARCHY
ROOT Pelvis
{
	OFFSET 0.000000 0.000000 0.000000
	CHANNELS 6 Xposition Yposition Zposition Xrotation Yrotation Zrotation
	JOINT LeftUpLeg_virtual
	{
		OFFSET 0.000000 0.000000 0.000000
		CHANNELS 3 Xrotation Yrotation Zrotation
		JOINT LeftUpLeg
		{
			OFFSET 18.735201 -5.666702 -4.541200
			CHANNELS 3 Xrotation Yrotation Zrotation
			JOINT LeftLeg
			{
				OFFSET -0.021200 -31.938179 0.493100
				CHANNELS 3 Xrotation Yrotation Zrotation
				JOINT LeftFoot
				{
					OFFSET 0.021200 -31.938179 -4.336299
					CHANNELS 3 Xrotation Yrotation Zrotation
					JOINT LeftToeBase
					{
						OFFSET 0.943001 -26.722000 15.023500
						CHANNELS 3 Xrotation Yrotation Zrotation
						End Site
						{
							OFFSET 0 0 0
						}
					}
				}
			}
		}
	}
	JOINT RightUpLeg_virtual
	{
		OFFSET 0.000000 0.000000 0.000000
		CHANNELS 3 Xrotation Yrotation Zrotation
		JOINT RightUpLeg
		{
			OFFSET -18.735201 -5.666702 -4.541200
			CHANNELS 3 Xrotation Yrotation Zrotation
			JOINT RightLeg
			{
				OFFSET 0.018946 -31.938133 0.493100
				CHANNELS 3 Xrotation Yrotation Zrotation
				JOINT RightFoot
				{
					OFFSET -0.018946 -31.938126 -4.336299
					CHANNELS 3 Xrotation Yrotation Zrotation
					JOINT RightToeBase
					{
						OFFSET -0.943001 -26.722004 15.023500
						CHANNELS 3 Xrotation Yrotation Zrotation
						End Site
						{
							OFFSET 0 0 0
						}
					}
				}
			}
		}
	}
	JOINT Hips_virtual
	{
		OFFSET 0.000000 0.000000 0.000000
		CHANNELS 3 Xrotation Yrotation Zrotation
		JOINT Hips
		{
			OFFSET -0.000000 -0.000000 -0.000000
			CHANNELS 3 Xrotation Yrotation Zrotation
			JOINT Spine
			{
				OFFSET 0.000000 10.199997 -0.299500
				CHANNELS 3 Xrotation Yrotation Zrotation
				JOINT Spine1
				{
					OFFSET 0.000000 11.900002 -1.516600
					CHANNELS 3 Xrotation Yrotation Zrotation
					JOINT Spine2
					{
						OFFSET 0.000000 13.600006 -2.842500
						CHANNELS 3 Xrotation Yrotation Zrotation
						JOINT Neck_virtual
						{
							OFFSET 0.000000 0.000000 0.000000
							CHANNELS 3 Xrotation Yrotation Zrotation
							JOINT Neck
							{
								OFFSET 0.000000 9.624100 -2.890100
								CHANNELS 3 Xrotation Yrotation Zrotation
								JOINT Head
								{
									OFFSET 0.000000 14.068802 -1.351900
									CHANNELS 3 Xrotation Yrotation Zrotation
									End Site
									{
										OFFSET 0 0 0
									}
								}
							}
						}
						JOINT LeftShoulder_virtual
						{
							OFFSET 0.000000 0.000000 0.000000
							CHANNELS 3 Xrotation Yrotation Zrotation
							JOINT LeftShoulder
							{
								OFFSET 15.263000 10.923401 -0.547700
								CHANNELS 3 Xrotation Yrotation Zrotation
								JOINT LeftArm
								{
									OFFSET 25.438599 -2.830597 -13.032500
									CHANNELS 3 Xrotation Yrotation Zrotation
									JOINT LeftForeArm
									{
										OFFSET 29.960503 0.000000 0.000000
										CHANNELS 3 Xrotation Yrotation Zrotation
										JOINT LeftHand
										{
											OFFSET 27.849251 0.000000 0.000000
											CHANNELS 3 Xrotation Yrotation Zrotation
											End Site
											{
												OFFSET 0 0 0
											}
										}
									}
								}
							}
						}
						JOINT RightShoulder_virtual
						{
							OFFSET 0.000000 0.000000 0.000000
							CHANNELS 3 Xrotation Yrotation Zrotation
							JOINT RightShoulder
							{
								OFFSET -15.263000 10.923401 -0.547700
								CHANNELS 3 Xrotation Yrotation Zrotation
								JOINT RightArm
								{
									OFFSET -25.438599 -2.830597 -13.032500
									CHANNELS 3 Xrotation Yrotation Zrotation
									JOINT RightForeArm
									{
										OFFSET -29.960503 0.000000 0.000000
										CHANNELS 3 Xrotation Yrotation Zrotation
										JOINT RightHand
										{
											OFFSET -27.849251 0.000000 0.000000
											CHANNELS 3 Xrotation Yrotation Zrotation
											End Site
											{
												OFFSET 0 0 0
											}
										}
									}
								}
							}
						}
					}
				}
			}
		}
	}
}
MOTION
Frames: 10
Frame Time: 0.03333333
0.420590 111.917740 2.970749 0.000000 0.000000 0.000000 -89.650768 0.337122 0.802664 -11.714272 14.651876 23.034799 13.267862 6.353848 0.135268 29.014582 29.298991 -33.793577 0.000000 0.000000 0.000000 -89.650768 0.337122 0.802664 -14.198783 -13.650359 -17.298301 15.214327 -6.797501 -7.432369 38.741612 -29.042999 33.820665 0.000000 0.000000 0.000000 -89.650768 0.337122 0.802664 0.000000 0.000000 0.000000 1.064077 -1.161375 0.863852 -0.317535 -2.434543 0.230484 0.000000 0.000000 0.000000 -0.303412 -2.418348 0.331943 -3.650834 0.012725 -0.656615 0.000000 0.000000 0.000000 -0.303412 -2.418348 0.331943 0.422244 -0.102999 -4.005444 35.263662 -28.378546 -54.538398 0.000081 -80.454246 0.000067 0.000000 0.000000 0.000000 -0.303412 -2.418348 0.331943 0.646692 1.792568 13.881976 39.542929 30.913354 33.651659 179.997369 78.652101 -179.997396 0.000000 0.000000 0.000000 
0.409867 111.915108 2.997391 0.000000 0.000000 0.000000 -89.671600 0.430577 0.938722 -11.753897 14.466909 22.875485 13.393135 6.249531 0.185886 29.051407 29.292441 -33.732658 0.000000 0.000000 0.000000 -89.671600 0.430577 0.938722 -14.280262 -13.726216 -17.638644 15.335265 -6.445339 -7.164576 39.152663 -29.033194 33.818200 0.000000 0.000000 0.000000 -89.671600 0.430577 0.938722 0.000000 0.000000 0.000000 1.042549 -1.121875 0.860579 -0.418975 -2.373052 0.195801 0.000000 0.000000 0.000000 -0.397363 -2.369104 0.309557 -3.637893 -0.002036 -0.629713 0.000000 0.000000 0.000000 -0.397363 -2.369104 0.309557 0.461627 -0.727168 -4.005710 35.651682 -28.307477 -54.248293 -0.000138 -80.590112 -0.000110 0.000000 0.000000 0.000000 -0.397363 -2.369104 0.309557 0.607866 1.777501 13.847700 37.902581 30.020054 36.590092 179.991822 78.752252 -179.991891 0.000000 0.000000 0.000000 
0.428272 111.913162 3.001068 0.000000 0.000000 0.000000 -89.707554 0.529198 1.074936 -11.794598 14.264633 22.702695 13.574218 6.142212 0.236306 29.112271 29.267945 -33.651075 0.000000 0.000000 0.000000 -89.707554 0.529198 1.074936 -14.383741 -13.786885 -18.028192 15.301429 -6.149040 -6.895309 40.050399 -29.003671 33.832297 0.000000 0.000000 0.000000 -89.707554 0.529198 1.074936 0.000000 0.000000 0.000000 1.021089 -1.082473 0.853993 -0.521705 -2.314062 0.161337 0.000000 0.000000 0.000000 -0.492039 -2.319871 0.287192 -3.599458 -0.017362 -0.601963 0.000000 0.000000 0.000000 -0.492039 -2.319871 0.287192 0.507659 -1.375825 -4.005944 35.944502 -28.114968 -54.137087 0.000069 -80.729264 0.000079 0.000000 0.000000 0.000000 -0.492039 -2.319871 0.287192 0.569202 1.762516 13.812975 35.720708 29.082102 39.718575 179.965704 79.219970 -179.966100 0.000000 0.000000 0.000000 
0.449653 111.911377 3.002213 0.000000 0.000000 0.000000 -89.747210 0.629220 1.213068 -11.861149 14.048171 22.530106 13.806999 6.026668 0.285562 29.166486 29.245299 -33.522596 0.000000 0.000000 0.000000 -89.747210 0.629220 1.213068 -14.486164 -13.847245 -18.422936 15.205832 -5.888257 -6.630065 41.043420 -28.968144 33.843936 0.000000 0.000000 0.000000 -89.747210 0.629220 1.213068 0.000000 0.000000 0.000000 0.999655 -1.042902 0.842276 -0.624389 -2.255072 0.126877 0.000000 0.000000 0.000000 -0.586715 -2.270638 0.264826 -3.536841 -0.032893 -0.574238 0.000000 0.000000 0.000000 -0.586715 -2.270638 0.264826 0.565013 -2.038753 -3.968433 36.227839 -27.974493 -54.031215 -0.000006 -80.847877 -0.000021 0.000000 0.000000 0.000000 -0.586715 -2.270638 0.264826 0.532911 1.739979 13.779528 33.134607 28.142888 42.894493 -179.999131 80.011582 179.999117 0.000000 0.000000 0.000000 
0.487538 111.912483 3.006172 0.000000 0.000000 0.000000 -89.779688 0.726126 1.350420 -11.954746 13.828719 22.352638 14.089540 5.910898 0.334597 29.230058 29.219539 -33.390107 0.000000 0.000000 0.000000 -89.779688 0.726126 1.350420 -14.631126 -13.895175 -18.828520 15.055789 -5.708175 -6.373636 42.149039 -28.923232 33.857712 0.000000 0.000000 0.000000 -89.779688 0.726126 1.350420 0.000000 0.000000 0.000000 0.977807 -1.002382 0.828045 -0.725585 -2.193579 0.092203 0.000000 0.000000 0.000000 -0.680580 -2.221394 0.242446 -3.451245 -0.048272 -0.547404 0.000000 0.000000 0.000000 -0.680580 -2.221394 0.242446 0.624282 -2.705505 -3.943881 36.534682 -27.843710 -53.883014 0.000060 -80.975875 0.000054 0.000000 0.000000 0.000000 -0.680580 -2.221394 0.242446 0.504903 1.691343 13.749588 30.303418 27.254043 45.899353 179.998584 81.105300 -179.998612 0.000000 0.000000 0.000000 
0.529387 111.913834 3.009542 0.000000 0.000000 0.000000 -89.794106 0.815791 1.485501 -12.043163 13.631860 22.163286 14.317425 5.797255 0.383671 29.285645 29.196702 -33.251383 0.000000 0.000000 0.000000 -89.794106 0.815791 1.485501 -14.718581 -13.968706 -19.187357 15.044646 -5.480488 -6.135781 42.476209 -28.920595 33.872769 0.000000 0.000000 0.000000 -89.794106 0.815791 1.485501 0.000000 0.000000 0.000000 0.955299 -0.961576 0.812697 -0.823887 -2.127081 0.057099 0.000000 0.000000 0.000000 -0.772897 -2.172133 0.220032 -3.344042 -0.063152 -0.522343 0.000000 0.000000 0.000000 -0.772897 -2.172133 0.220032 0.683090 -3.365873 -3.937142 36.836627 -27.689903 -53.735444 -0.000026 -81.112765 -0.000017 0.000000 0.000000 0.000000 -0.772897 -2.172133 0.220032 0.496271 1.581825 13.727720 27.476902 26.672109 48.315604 179.997505 82.498727 -179.997505 0.000000 0.000000 0.000000 
0.579016 111.920471 3.012526 0.000000 0.000000 0.000000 -89.779094 0.893910 1.615905 -12.164899 13.452682 21.976197 14.557983 5.692867 0.433589 29.348770 29.172571 -33.109602 0.000000 0.000000 0.000000 -89.779094 0.893910 1.615905 -14.851333 -14.039529 -19.523206 15.047296 -5.253057 -5.939196 42.780654 -28.920892 33.883452 0.000000 0.000000 0.000000 -89.779094 0.893910 1.615905 0.000000 0.000000 0.000000 0.931846 -0.918902 0.798451 -0.917808 -2.053075 0.021351 0.000000 0.000000 0.000000 -0.862921 -2.122841 0.197564 -3.216508 -0.076913 -0.501225 0.000000 0.000000 0.000000 -0.862921 -2.122841 0.197564 0.742971 -4.009704 -3.933650 37.120200 -27.535295 -53.596320 0.000204 -81.245052 0.000219 0.000000 0.000000 0.000000 -0.862921 -2.122841 0.197564 0.491465 1.455981 13.715577 24.469491 26.105043 50.660609 179.999827 84.099532 -179.999814 0.000000 0.000000 0.000000 
0.631053 111.934288 3.015015 0.000000 0.000000 0.000000 -89.723619 0.955566 1.739868 -12.332380 13.297091 21.798486 14.812843 5.602540 0.484816 29.421778 29.146828 -32.969627 0.000000 0.000000 0.000000 -89.723619 0.955566 1.739868 -15.040206 -14.109770 -19.821364 15.077503 -5.007609 -5.799146 43.028546 -28.927026 33.886614 0.000000 0.000000 0.000000 -89.723619 0.955566 1.739868 0.000000 0.000000 0.000000 0.905732 -0.871589 0.782835 -1.000484 -1.959468 -0.016084 0.000000 0.000000 0.000000 -0.946925 -2.073471 0.174957 -3.069944 -0.089646 -0.483025 0.000000 0.000000 0.000000 -0.946925 -2.073471 0.174957 0.802148 -4.626775 -3.936393 37.375014 -27.384329 -53.457363 -0.000035 -81.372586 0.000000 0.000000 0.000000 0.000000 -0.946925 -2.073471 0.174957 0.532367 1.181219 13.733712 21.230243 25.566651 53.027021 179.997628 85.881774 -179.997614 0.000000 0.000000 0.000000 
0.678101 111.963242 3.016586 0.000000 0.000000 0.000000 -89.553656 0.971380 1.846239 -12.593335 13.165097 21.639933 15.050446 5.530823 0.537888 29.505601 29.119579 -32.827665 0.000000 0.000000 0.000000 -89.553656 0.971380 1.846239 -15.362837 -14.100210 -19.991730 15.196341 -4.779037 -5.822395 43.190817 -28.941226 33.875932 0.000000 0.000000 0.000000 -89.553656 0.971380 1.846239 0.000000 0.000000 0.000000 0.871553 -0.823752 0.768563 -1.068398 -1.863814 -0.054220 0.000000 0.000000 0.000000 -1.015959 -2.024544 0.151549 -2.905658 -0.100995 -0.468745 0.000000 0.000000 0.000000 -1.015959 -2.024544 0.151549 0.858782 -5.206888 -3.948533 37.610949 -27.241228 -53.302561 -0.000152 -81.497810 -0.000150 0.000000 0.000000 0.000000 -1.015959 -2.024544 0.151549 0.565608 0.926264 13.758620 17.972837 25.016662 55.305582 179.999008 87.680491 -179.999021 0.000000 0.000000 0.000000 
0.726351 112.003128 3.023933 0.000000 0.000000 0.000000 -89.324155 0.943834 1.919329 -12.986050 13.025794 21.545623 15.419934 5.477261 0.592416 29.607562 29.087962 -32.711545 0.000000 0.000000 0.000000 -89.324155 0.943834 1.919329 -15.694533 -13.951102 -20.070263 15.248385 -4.688576 -5.860377 43.410534 -28.943357 33.874439 0.000000 0.000000 0.000000 -89.324155 0.943834 1.919329 0.000000 0.000000 0.000000 0.837062 -0.775907 0.750436 -1.117915 -1.768373 -0.093061 0.000000 0.000000 0.000000 -1.066219 -1.976296 0.126938 -2.724891 -0.110309 -0.461985 0.000000 0.000000 0.000000 -1.066219 -1.976296 0.126938 0.910886 -5.739869 -3.973367 37.831988 -27.108881 -53.117804 -0.000358 -81.626983 -0.000369 0.000000 0.000000 0.000000 -1.066219 -1.976296 0.126938 0.623644 0.590496 13.803735 14.425018 24.133597 58.004726 179.998338 89.330022 -179.998393 0.000000 0.000000 0.000000 
